<svg width="344" height="46" viewBox="0 0 344 46" fill="none" xmlns="http://www.w3.org/2000/svg">
<path d="M10.543 29.3711H15.1523V2.84766H24.8594V26.7539C24.8594 27.2747 24.8268 27.8346 24.7617 28.4336C24.6966 29.0326 24.5339 29.6315 24.2734 30.2305C24.013 30.8164 23.6224 31.3828 23.1016 31.9297C22.5807 32.4766 21.8711 32.9583 20.9727 33.375C20.0742 33.7917 18.9544 34.1237 17.6133 34.3711C16.2721 34.6315 14.6445 34.7617 12.7305 34.7617C10.8424 34.7617 9.23438 34.6315 7.90625 34.3711C6.57812 34.1237 5.47135 33.7917 4.58594 33.375C3.71354 32.9583 3.02344 32.4766 2.51562 31.9297C2.02083 31.3828 1.64323 30.8164 1.38281 30.2305C1.13542 29.6315 0.979167 29.0326 0.914062 28.4336C0.861979 27.8346 0.835938 27.2747 0.835938 26.7539V2.84766H10.543V29.3711ZM33.2188 34V8.60938H41.2461L42.1445 11.8711C42.4831 11.194 42.9258 10.6016 43.4727 10.0938C44.0195 9.57292 44.6315 9.14323 45.3086 8.80469C45.9857 8.45312 46.7083 8.19271 47.4766 8.02344C48.2448 7.84115 49.026 7.75 49.8203 7.75C50.7448 7.75 51.6497 7.89974 52.5352 8.19922C53.4336 8.4987 54.2279 8.95443 54.918 9.56641C55.6211 10.1654 56.181 10.9271 56.5977 11.8516C57.0273 12.776 57.2422 13.8568 57.2422 15.0938V34H47.5352V13.2969H42.9258V34H33.2188ZM65.1523 8.60938C65.1523 7.07292 65.3672 5.77083 65.7969 4.70312C66.2266 3.6224 66.8255 2.74349 67.5938 2.06641C68.362 1.38932 69.2734 0.901042 70.3281 0.601562C71.3958 0.289062 72.5612 0.132812 73.8242 0.132812C74.8138 0.132812 75.8424 0.223958 76.9102 0.40625C77.9909 0.575521 79.1042 0.816406 80.25 1.12891V5.15234H74.8594V8.60938H80.4062V12.5547H74.8594V34H65.1523V12.5547H61.5V8.60938H65.1523ZM95.4062 29.3711H100.016V13.2969H95.4062V29.3711ZM97.8281 34.7617C95.875 34.7617 94.2148 34.6445 92.8477 34.4102C91.4935 34.1758 90.3672 33.8633 89.4688 33.4727C88.5703 33.082 87.8672 32.6263 87.3594 32.1055C86.8646 31.5846 86.4935 31.0443 86.2461 30.4844C85.9987 29.9245 85.8424 29.3581 85.7773 28.7852C85.7253 28.1992 85.6992 27.6458 85.6992 27.125V15.4062C85.6992 14.8854 85.7253 14.3385 85.7773 13.7656C85.8424 13.1797 85.9987 12.6068 86.2461 12.0469C86.4935 11.474 86.8646 10.9336 87.3594 10.4258C87.8672 9.90495 88.5703 9.44922 89.4688 9.05859C90.3672 8.66797 91.4935 8.35547 92.8477 8.12109C94.2148 7.88672 95.875 7.76953 97.8281 7.76953C99.7682 7.76953 101.409 7.88672 102.75 8.12109C104.104 8.35547 105.217 8.66797 106.09 9.05859C106.975 9.44922 107.659 9.90495 108.141 10.4258C108.635 10.9336 109 11.474 109.234 12.0469C109.469 12.6068 109.605 13.1797 109.645 13.7656C109.697 14.3385 109.723 14.8854 109.723 15.4062V27.125C109.723 27.6458 109.697 28.1992 109.645 28.7852C109.605 29.3581 109.469 29.9245 109.234 30.4844C109 31.0443 108.635 31.5846 108.141 32.1055C107.659 32.6263 106.975 33.082 106.09 33.4727C105.217 33.8633 104.104 34.1758 102.75 34.4102C101.409 34.6445 99.7682 34.7617 97.8281 34.7617ZM115.133 34V8.60938H122.965L124.059 12.6133C124.189 11.9622 124.391 11.3893 124.664 10.8945C124.938 10.3997 125.25 9.97656 125.602 9.625C125.966 9.26042 126.357 8.96094 126.773 8.72656C127.19 8.49219 127.607 8.3099 128.023 8.17969C128.44 8.03646 128.844 7.9388 129.234 7.88672C129.625 7.82161 129.97 7.78255 130.27 7.76953V15.4648L124.84 17.0273V34H115.133ZM145.797 34H136.09V12.5156H133.688V8.60938H136.09V2.84766H145.797V8.60938H149V12.5156H145.797V34ZM177.555 8.60938V34H169.527L168.629 30.7383C168.29 31.4154 167.848 32.0143 167.301 32.5352C166.754 33.043 166.142 33.4727 165.465 33.8242C164.788 34.1628 164.065 34.4167 163.297 34.5859C162.529 34.7682 161.747 34.8594 160.953 34.8594C160.029 34.8594 159.117 34.7096 158.219 34.4102C157.333 34.1107 156.539 33.6615 155.836 33.0625C155.146 32.4505 154.586 31.6823 154.156 30.7578C153.74 29.8333 153.531 28.7526 153.531 27.5156V8.60938H163.238V29.3711H167.848V8.60938H177.555ZM183.258 34V8.60938H191.285L192.184 11.8711C192.522 11.194 192.965 10.6016 193.512 10.0938C194.059 9.57292 194.671 9.14323 195.348 8.80469C196.025 8.45312 196.747 8.19271 197.516 8.02344C198.284 7.84115 199.065 7.75 199.859 7.75C200.784 7.75 201.689 7.89974 202.574 8.19922C203.473 8.4987 204.267 8.95443 204.957 9.56641C205.66 10.1654 206.22 10.9271 206.637 11.8516C207.066 12.776 207.281 13.8568 207.281 15.0938V34H197.574V13.2969H192.965V34H183.258ZM228.023 34L227.145 30.7383C226.806 31.4023 226.376 31.9818 225.855 32.4766C225.335 32.9714 224.755 33.388 224.117 33.7266C223.479 34.0521 222.796 34.293 222.066 34.4492C221.35 34.6185 220.634 34.7031 219.918 34.7031C218.421 34.7031 217.164 34.4753 216.148 34.0195C215.146 33.5768 214.339 32.9909 213.727 32.2617C213.128 31.5195 212.698 30.6797 212.438 29.7422C212.19 28.7917 212.066 27.8151 212.066 26.8125C212.066 25.7839 212.216 24.7747 212.516 23.7852C212.828 22.7826 213.355 21.8906 214.098 21.1094C214.853 20.3151 215.862 19.6771 217.125 19.1953C218.401 18.7135 220.003 18.4727 221.93 18.4727C222.594 18.4727 223.31 18.4922 224.078 18.5312C224.846 18.5703 225.615 18.6354 226.383 18.7266V13.2969H221.773V16.5586L214.078 16.5391C213.935 16.0312 213.818 15.5299 213.727 15.0352C213.635 14.5404 213.59 14.0651 213.59 13.6094C213.59 12.8281 213.753 12.0859 214.078 11.3828C214.417 10.6667 214.99 10.0417 215.797 9.50781C216.617 8.97396 217.711 8.55078 219.078 8.23828C220.458 7.92578 222.197 7.76953 224.293 7.76953C226.181 7.76953 227.783 7.88672 229.098 8.12109C230.413 8.35547 231.507 8.66797 232.379 9.05859C233.251 9.44922 233.935 9.90495 234.43 10.4258C234.924 10.9336 235.296 11.474 235.543 12.0469C235.79 12.6068 235.94 13.1797 235.992 13.7656C236.057 14.3385 236.09 14.8854 236.09 15.4062V28.9805C236.09 29.6055 236.129 30.2109 236.207 30.7969C236.298 31.3828 236.396 31.9167 236.5 32.3984C236.63 32.9583 236.773 33.4922 236.93 34H228.023ZM221.773 22.2422V29.3711H226.383V22.2422H221.773ZM252.75 34H243.043V12.5156H240.641V8.60938H243.043V2.84766H252.75V8.60938H255.953V12.5156H252.75V34ZM284.156 25.1914C284.156 26.1159 284.124 26.9948 284.059 27.8281C283.993 28.6484 283.831 29.4167 283.57 30.1328C283.323 30.8359 282.939 31.4674 282.418 32.0273C281.91 32.5872 281.207 33.069 280.309 33.4727C279.423 33.8633 278.31 34.1628 276.969 34.3711C275.641 34.5924 274.02 34.7031 272.105 34.7031C270.152 34.7031 268.499 34.5859 267.145 34.3516C265.803 34.1172 264.69 33.8047 263.805 33.4141C262.919 33.0234 262.229 32.5742 261.734 32.0664C261.24 31.5456 260.875 31.0052 260.641 30.4453C260.406 29.8724 260.263 29.2995 260.211 28.7266C260.172 28.1536 260.152 27.6068 260.152 27.0859V15.3672C260.152 14.8464 260.172 14.2995 260.211 13.7266C260.263 13.1536 260.406 12.5872 260.641 12.0273C260.875 11.4674 261.24 10.9336 261.734 10.4258C262.229 9.90495 262.919 9.44922 263.805 9.05859C264.69 8.66797 265.803 8.35547 267.145 8.12109C268.499 7.88672 270.152 7.76953 272.105 7.76953C274.007 7.76953 275.628 7.88672 276.969 8.12109C278.31 8.35547 279.423 8.66797 280.309 9.05859C281.207 9.44922 281.91 9.90495 282.418 10.4258C282.939 10.9336 283.329 11.4674 283.59 12.0273C283.85 12.5872 284.013 13.1602 284.078 13.7461C284.143 14.319 284.176 14.8594 284.176 15.3672V22.6914H269.859V29.3711H274.469V25.2109L284.156 25.1914ZM269.859 19.2148H274.469V13.2969H269.859V19.2148ZM299.176 34H289.469V0.601562H299.176V34ZM314.371 29.3711H318.98V8.60938H328.688V32.8672C328.688 34.3906 328.525 35.7578 328.199 36.9688C327.887 38.1927 327.444 39.2734 326.871 40.2109C326.311 41.1484 325.647 41.9492 324.879 42.6133C324.111 43.2773 323.277 43.8177 322.379 44.2344C321.493 44.6641 320.556 44.9766 319.566 45.1719C318.59 45.3672 317.613 45.4648 316.637 45.4648C315.751 45.4648 314.879 45.3867 314.02 45.2305C313.173 45.0742 312.359 44.8464 311.578 44.5469C310.81 44.2604 310.1 43.9089 309.449 43.4922C308.798 43.0755 308.232 42.6068 307.75 42.0859C307.268 41.5781 306.891 41.0247 306.617 40.4258C306.357 39.8268 306.227 39.1953 306.227 38.5312C306.227 38.2448 306.253 37.9518 306.305 37.6523C306.357 37.3529 306.441 37.0534 306.559 36.7539L316.383 37.3398V38.5898H319V32.0273C318.596 32.4831 318.128 32.8867 317.594 33.2383C317.06 33.5898 316.487 33.8828 315.875 34.1172C315.276 34.3646 314.645 34.5469 313.98 34.6641C313.316 34.7943 312.652 34.8594 311.988 34.8594C311.064 34.8594 310.159 34.7096 309.273 34.4102C308.401 34.1107 307.62 33.6484 306.93 33.0234C306.253 32.3984 305.706 31.6107 305.289 30.6602C304.872 29.6966 304.664 28.5638 304.664 27.2617V8.60938H314.371V29.3711ZM343.219 34H334.273V24.8789H343.219V34Z" fill="#535352"/>
</svg>
